<?xml version="1.0" encoding="utf-8"?>
<?xml-stylesheet type="text/xsl" href="rss1.xsl"?>
<rss version="2.0" xmlns:atom="http://www.w3.org/2005/Atom" xmlns:content="http://purl.org/rss/1.0/modules/content/" xmlns:dc="http://purl.org/dc/elements/1.1/" xmlns:media="http://search.yahoo.com/mrss/">
<channel>
 <title>Getty</title>
 <link>http://www.gettyimg.com/</link>
 <atom:link href="http://www.gettyimg.com/" rel="self" type="application/rss+xml" />

 
                <item>
                <title><![CDATA[【Cinema Center】SERIES - The Rocketeer - Season 1 - 1080p Disney+ WEB-DL AAC2.0 H.264-LAZY]]></title>
                <link><![CDATA[https://sharemania.us/threads/the-rocketeer-season-1-1080p-disney-web-dl-aac2-0-h-264-lazy.237249/]]></link>
                <description><![CDATA[<article>
<blockquote class="messageText SelectQuoteContainer ugc baseHtml">
The Rocketeer:<img src="https://cdn2.broadcasthe.net/tvdb/banners/v4/series/371012/banners/649a6716be30f.jpg" class="bbCodeImage LbImage" alt="[​IMG]" data-url="https://cdn2.broadcasthe.net/tvdb/banners/v4/series/371012/banners/649a6716be30f.jpg" style=""> <br>
<br>
<div class="bbCodeBlock bbCodeQuote">
<aside>
<blockquote class="quoteContainer"><div class="quote"><i><b>Synopsis:</b></i><br>
Six-year-old Kit Secord learns she is secretly next in line to become The Rocketeer, a rocket-pack wearing superhero who can fly. Armed with her cool new gear and secret identity, Kit takes to the skies to protect her town of Hughesville and its residents from danger. Assisting her on her heroic adventures are her best friend Tesh, bulldog sidekick Butch, and airplane mechanic grandfather, Ambrose Secord.</div><div class="quoteExpand">Click to expand...</div></blockquote>
</aside>
</div>
<div class="ToggleTriggerAnchor bbCodeSpoilerContainer">
<button type="button" class="button bbCodeSpoilerButton ToggleTrigger Tooltip JsOnly" data-target="> .SpoilerTarget"><span>Spoiler: <span class="SpoilerTitle">MediaInfo</span></span></button>
<div class="SpoilerTarget bbCodeSpoilerText">General<br>
Unique ID : 255711843305418019558177650357156486137 (0xC0604F42F86781A84BB365FD6C609BF9)<br>
Complete name : The.Rocketeer.S01E01E02.First.Flight.-.Pilot.Error.1080p.DSNP.WEB-DL.AAC2.0.H.264-LAZY.mkv<br>
Format : Matroska<br>
Format version : Version 4<br>
File size : 1.44 GiB<br>
Duration : 24 min 3 s<br>
Overall bit rate mode : Variable<br>
Overall bit rate : 8 597 kb/s<br>
Frame rate : 23.976 FPS<br>
Encoded date : 2024-02-06 16:14:27 UTC<br>
Writing application : mkvmerge v82.0 ('I'm The President') 64-bit<br>
Writing library : libebml v1.4.5 + libmatroska v1.7.1<br>
<br>
Video<br>
ID : 1<br>
Format : AVC<br>
Format/Info : Advanced Video Codec<br>
Format profile : High@L4<br>
Format settings : CABAC / 4 Ref Frames<br>
Format settings, CABAC : Yes<br>
Format settings, Reference frames : 4 frames<br>
Codec ID : V_MPEG4/ISO/AVC<br>
Duration : 24 min 3 s<br>
Bit rate mode : Variable<br>
Bit rate : 8 467 kb/s<br>
Maximum bit rate : 12.7 Mb/s<br>
Width : 1 920 pixels<br>
Height : 1 080 pixels<br>
Display aspect ratio : 16:9<br>
Frame rate mode : Constant<br>
Frame rate : 23.976 (24000/1001) FPS<br>
Color space : YUV<br>
Chroma subsampling : 4:2:0<br>
Bit depth : 8 bits<br>
Scan type : Progressive<br>
Bits/(Pixel*Frame) : 0.170<br>
Stream size : 1.42 GiB (98%)<br>
Default : Yes<br>
Forced : No<br>
Color range : Limited<br>
Color primaries : BT.709<br>
Transfer characteristics : BT.709<br>
Matrix coefficients : BT.709<br>
<br>
Audio<br>
ID : 2<br>
Format : AAC LC<br>
Format/Info : Advanced Audio Codec Low Complexity<br>
Codec ID : A_AAC-2<br>
Duration : 24 min 3 s<br>
Bit rate : 125 kb/s<br>
Channel(s) : 2 channels<br>
Channel layout : L R<br>
Sampling rate : 48.0 kHz<br>
Frame rate : 46.875 FPS (1024 SPF)<br>
Compression mode : Lossy<br>
Stream size : 21.6 MiB (1%)<br>
Language : English<br>
Default : Yes<br>
Forced : No<br>
<br>
Text #1<br>
ID : 3<br>
Format : UTF-8<br>
Codec ID : S_TEXT/UTF8<br>
Codec ID/Info : UTF-8 Plain Text<br>
Duration : 23 min 56 s<br>
Bit rate : 87 b/s<br>
Frame rate : 0.349 FPS<br>
Count of elements : 501<br>
Stream size : 15.4 KiB (0%)<br>
Title : SDH<br>
Language : English<br>
Default : No<br>
Forced : No<br>
<br>
Text #2<br>
ID : 4<br>
Format : UTF-8<br>
Codec ID : S_TEXT/UTF8<br>
Codec ID/Info : UTF-8 Plain Text<br>
Duration : 23 min 54 s<br>
Bit rate : 66 b/s<br>
Frame rate : 0.306 FPS<br>
Count of elements : 439<br>
Stream size : 11.6 KiB (0%)<br>
Language : Czech<br>
Default : No<br>
Forced : No<br>
<br>
Text #3<br>
ID : 5<br>
Format : UTF-8<br>
Codec ID : S_TEXT/UTF8<br>
Codec ID/Info : UTF-8 Plain Text<br>
Duration : 23 min 55 s<br>
Bit rate : 74 b/s<br>
Frame rate : 0.298 FPS<br>
Count of elements : 427<br>
Stream size : 13.1 KiB (0%)<br>
Language : Danish<br>
Default : No<br>
Forced : No<br>
<br>
Text #4<br>
ID : 6<br>
Format : UTF-8<br>
Codec ID : S_TEXT/UTF8<br>
Codec ID/Info : UTF-8 Plain Text<br>
Duration : 23 min 55 s<br>
Bit rate : 135 b/s<br>
Frame rate : 0.300 FPS<br>
Count of elements : 430<br>
Stream size : 23.8 KiB (0%)<br>
Language : Greek<br>
Default : No<br>
Forced : No<br>
<br>
Text #5<br>
ID : 7<br>
Format : UTF-8<br>
Codec ID : S_TEXT/UTF8<br>
Codec ID/Info : UTF-8 Plain Text<br>
Duration : 23 min 56 s<br>
Bit rate : 63 b/s<br>
Frame rate : 0.194 FPS<br>
Count of elements : 279<br>
Stream size : 11.2 KiB (0%)<br>
Language : Finnish<br>
Default : No<br>
Forced : No<br>
<br>
Text #6<br>
ID : 8<br>
Format : UTF-8<br>
Codec ID : S_TEXT/UTF8<br>
Codec ID/Info : UTF-8 Plain Text<br>
Duration : 23 min 54 s<br>
Bit rate : 70 b/s<br>
Frame rate : 0.307 FPS<br>
Count of elements : 440<br>
Stream size : 12.4 KiB (0%)<br>
Language : Hungarian<br>
Default : No<br>
Forced : No<br>
<br>
Text #7<br>
ID : 9<br>
Format : UTF-8<br>
Codec ID : S_TEXT/UTF8<br>
Codec ID/Info : UTF-8 Plain Text<br>
Duration : 23 min 54 s<br>
Bit rate : 106 b/s<br>
Frame rate : 0.429 FPS<br>
Count of elements : 616<br>
Stream size : 18.7 KiB (0%)<br>
Title : SDH<br>
Language : Korean<br>
Default : No<br>
Forced : No<br>
<br>
Text #8<br>
ID : 10<br>
Format : UTF-8<br>
Codec ID : S_TEXT/UTF8<br>
Codec ID/Info : UTF-8 Plain Text<br>
Duration : 23 min 56 s<br>
Bit rate : 71 b/s<br>
Frame rate : 0.299 FPS<br>
Count of elements : 429<br>
Stream size : 12.5 KiB (0%)<br>
Language : Dutch<br>
Default : No<br>
Forced : No<br>
<br>
Text #9<br>
ID : 11<br>
Format : UTF-8<br>
Codec ID : S_TEXT/UTF8<br>
Codec ID/Info : UTF-8 Plain Text<br>
Duration : 23 min 55 s<br>
Bit rate : 75 b/s<br>
Frame rate : 0.303 FPS<br>
Count of elements : 435<br>
Stream size : 13.3 KiB (0%)<br>
Language : Norwegian<br>
Default : No<br>
Forced : No<br>
<br>
Text #10<br>
ID : 12<br>
Format : UTF-8<br>
Codec ID : S_TEXT/UTF8<br>
Codec ID/Info : UTF-8 Plain Text<br>
Duration : 23 min 56 s<br>
Bit rate : 74 b/s<br>
Frame rate : 0.297 FPS<br>
Count of elements : 427<br>
Stream size : 13.1 KiB (0%)<br>
Language : Polish<br>
Default : No<br>
Forced : No<br>
<br>
Text #11<br>
ID : 13<br>
Format : UTF-8<br>
Codec ID : S_TEXT/UTF8<br>
Codec ID/Info : UTF-8 Plain Text<br>
Duration : 23 min 55 s<br>
Bit rate : 76 b/s<br>
Frame rate : 0.297 FPS<br>
Count of elements : 426<br>
Stream size : 13.3 KiB (0%)<br>
Title : European<br>
Language : Portuguese<br>
Default : No<br>
Forced : No<br>
<br>
Text #12<br>
ID : 14<br>
Format : UTF-8<br>
Codec ID : S_TEXT/UTF8<br>
Codec ID/Info : UTF-8 Plain Text<br>
Duration : 23 min 55 s<br>
Bit rate : 73 b/s<br>
Frame rate : 0.297 FPS<br>
Count of elements : 426<br>
Stream size : 12.8 KiB (0%)<br>
Language : Romanian<br>
Default : No<br>
Forced : No<br>
<br>
Text #13<br>
ID : 15<br>
Format : UTF-8<br>
Codec ID : S_TEXT/UTF8<br>
Codec ID/Info : UTF-8 Plain Text<br>
Duration : 23 min 55 s<br>
Bit rate : 78 b/s<br>
Frame rate : 0.304 FPS<br>
Count of elements : 436<br>
Stream size : 13.8 KiB (0%)<br>
Language : Swedish<br>
Default : No<br>
Forced : No<br>
<br>
Text #14<br>
ID : 16<br>
Format : UTF-8<br>
Codec ID : S_TEXT/UTF8<br>
Codec ID/Info : UTF-8 Plain Text<br>
Duration : 23 min 54 s<br>
Bit rate : 76 b/s<br>
Frame rate : 0.308 FPS<br>
Count of elements : 441<br>
Stream size : 13.4 KiB (0%)<br>
Language : Turkish<br>
Default : No<br>
Forced : No<br>
<br>
Text #15<br>
ID : 17<br>
Format : UTF-8<br>
Codec ID : S_TEXT/UTF8<br>
Codec ID/Info : UTF-8 Plain Text<br>
Duration : 23 min 54 s<br>
Bit rate : 67 b/s<br>
Frame rate : 0.307 FPS<br>
Count of elements : 440<br>
Stream size : 11.8 KiB (0%)<br>
Title : Traditional, Hong Kong<br>
Language : Chinese<br>
Default : No<br>
Forced : No<br>
<br>
Text #16<br>
ID : 18<br>
Format : UTF-8<br>
Codec ID : S_TEXT/UTF8<br>
Codec ID/Info : UTF-8 Plain Text<br>
Duration : 23 min 57 s<br>
Bit rate : 67 b/s<br>
Frame rate : 0.307 FPS<br>
Count of elements : 441<br>
Stream size : 11.9 KiB (0%)<br>
Title : Traditional<br>
Language : Chinese<br>
Default : No<br>
Forced : No<br>
<br>
Menu<br>
00:00:01.043 : en:Intro<br>
00:00:47.089 : en:Scene 1<br>
00:12:09.980 : en:Scene 2<br>
00:24:03.068 : en:Credits</div>
</div><br>
Screenshots:<br>
<img src="https://i.imgur.com/68oEMKu.jpeg" class="bbCodeImage LbImage" alt="[​IMG]" data-url="https://i.imgur.com/68oEMKu.jpeg" style=""> <br>
<div class="bbCodeBlock bbCodeVfcHH HiddenContent">
<div class="attribution type">Hidden Content:</div>
<blockquote>You must either reply or click 'Like' to see the hidden information contained here.</blockquote>
</div>
<div class="messageTextEndMarker">&nbsp;</div>
</blockquote>
</article>]]></description>
                <author><![CDATA[LazyRips]]></author>
                </item>

                </channel></rss>